<svg xmlns="http://www.w3.org/2000/svg" xmlns:xlink="http://www.w3.org/1999/xlink"><defs><path id="youtube-a" d="M.06.577h1021.39V718.94H.06"/></defs><symbol id="arrow-alt" viewBox="0 0 20 23"><path d="M5.228 9.793H20v2.672H5.228l.089.088 7.756 7.76-1.89 1.889L1.059 12.073l-.944-.944.944-.945L11.184.055l1.89 1.89-7.846 7.848z"/></symbol><symbol id="arrow-right" viewBox="0 0 14 23"><path d="M3.752 21.828l9.924-9.937a.849.849 0 0 0 0-1.206L3.752.748a.865.865 0 0 0-1.219 0L.323 2.97a.849.849 0 0 0 0 1.205l7.112 7.112L.324 18.4a.849.849 0 0 0 0 1.205l2.21 2.223a.865.865 0 0 0 1.218 0z"/></symbol><symbol id="checkmark" viewBox="0 0 38 38"><path d="M18.427 36.86c10.178 0 18.428-8.25 18.428-18.43C36.855 8.252 28.605 0 18.427 0 8.25 0 0 8.252 0 18.43c0 10.18 8.25 18.43 18.427 18.43zm0-2C9.355 34.86 2 27.506 2 18.43 2 9.356 9.355 2 18.427 2 27.5 2 34.855 9.356 34.855 18.43c0 9.075-7.355 16.43-16.428 16.43z"/><path d="M14.564 23.176l-3.86-3.86-1.061-1.061 2.121-2.122 1.06 1.061 3.86 3.86 8.078-8.078 1.06-1.061 2.122 2.121-1.06 1.06-9.139 9.14-1.06 1.062-.703-.704-.358-.357-1.06-1.06z"/></symbol><symbol id="download" viewBox="0 0 33 35"><g fill-rule="evenodd"><path d="M0 30.625h32.9V35H0v-4.375zM19.74 0v15.815l5.93-5.93 4.653 4.635-13.9 13.86-13.89-13.852L7.156 9.92l5.914 5.918.089-.04V0h6.58z"/></g></symbol><symbol id="facebook" viewBox="0 0 32 32"><path d="M17.996 32H12V16H8v-5.514l4-.002-.006-3.248C11.993 2.737 13.213 0 18.512 0h4.412v5.515h-2.757c-2.063 0-2.163.77-2.163 2.209l-.008 2.76h4.959l-.585 5.514L18 16l-.004 16z"/></symbol><symbol id="instagram" viewBox="0 0 32 32"><path d="M26.688 0H5.313C2.39 0 0 2.39 0 5.313v21.375C0 29.61 2.39 32 5.313 32h21.375C29.61 32 32 29.61 32 26.687V5.313C32 2.39 29.61 0 26.687 0zM10.244 14h11.512c.219.627.338 1.3.338 2A6.1 6.1 0 0 1 16 22.094 6.1 6.1 0 0 1 10.243 14h.001zM28 14.002V26c0 1.1-.9 2-2 2H6c-1.1 0-2-.9-2-2V14h3.128A9.094 9.094 0 0 0 16 25.094c5.015 0 9.095-4.08 9.095-9.094 0-.687-.078-1.356-.223-2l3.129.002H28zM28 7c0 .55-.45 1-1 1h-2c-.55 0-1-.45-1-1V5c0-.55.45-1 1-1h2c.55 0 1 .45 1 1v2z"/></symbol><symbol id="mail" viewBox="0 0 26 16"><g fill-rule="evenodd"><path d="M0 0l13 8 13-8v16H0V0z"/><path d="M3.009.035h20.014L13.01 6.051 3.01.035z"/></g></symbol><symbol id="next-prev" viewBox="0 0 42 42"><path d="M14.653 31.669l10.301-10.302a.85.85 0 0 0 .189-.275v9.837c0 .507.42.928.928.928h1.858c.507 0 .928-.42.928-.928V10.5a.935.935 0 0 0-.928-.929H26.07a.935.935 0 0 0-.928.929v9.837a.85.85 0 0 0-.189-.276L14.653 9.76c-.363-.363-.653-.232-.653.276v21.357c0 .508.29.638.653.276z"/><path d="M21 42c11.598 0 21-9.402 21-21S32.598 0 21 0 0 9.402 0 21s9.402 21 21 21zm0-4c-9.389 0-17-7.611-17-17S11.611 4 21 4s17 7.611 17 17-7.611 17-17 17z"/></symbol><symbol id="pause-large" viewBox="0 0 65 65"><path d="M32.5 65C50.45 65 65 50.45 65 32.5S50.45 0 32.5 0 0 14.55 0 32.5 14.55 65 32.5 65zm0-4.035c-15.72 0-28.465-12.744-28.465-28.465 0-15.72 12.744-28.465 28.465-28.465 15.72 0 28.465 12.744 28.465 28.465 0 15.72-12.744 28.465-28.465 28.465z"/><path d="M36 23v18h5V23h-5zM24 23v18h5V23h-5z"/></symbol><symbol id="pause" viewBox="0 0 25 25"><path d="M12.5 25C19.404 25 25 19.404 25 12.5S19.404 0 12.5 0 0 5.596 0 12.5 5.596 25 12.5 25zm0-2.908a9.592 9.592 0 1 1 0-19.184 9.592 9.592 0 0 1 0 19.184z"/><path d="M8 9v8h3V9H8zM14 9v8h3V9h-3z"/></symbol><symbol id="play-large" viewBox="0 0 65 65"><path d="M32.5 65C50.45 65 65 50.45 65 32.5S50.45 0 32.5 0 0 14.55 0 32.5 14.55 65 32.5 65zm0-4.035c-15.72 0-28.465-12.744-28.465-28.465 0-15.72 12.744-28.465 28.465-28.465 15.72 0 28.465 12.744 28.465 28.465 0 15.72-12.744 28.465-28.465 28.465z"/><path d="M49.764 32.365l-25.44 13.072c-.26.144-.48-25.742-.48-25.742-.014-.195.204-.243.48-.11l13.69 6.614 11.716 5.662c.279.134.292.362.034.504z"/></symbol><symbol id="play" viewBox="0 0 27 27"><path d="M13.44 26.417c7.12 0 12.893-5.772 12.893-12.893S20.561.63 13.44.63.546 6.403.546 13.524c0 7.12 5.773 12.893 12.894 12.893zm0-3c-5.464 0-9.894-4.43-9.894-9.893 0-5.464 4.43-9.894 9.894-9.894s9.893 4.43 9.893 9.894-4.43 9.893-9.893 9.893z"/><path d="M20.01 13.45l-9.593 4.928c-.098.054-.181-9.706-.181-9.706-.005-.074.077-.092.181-.042a172532335.727 172532335.727 0 0 0 9.58 4.629c.105.05.11.136.013.19z"/></symbol><symbol id="plus" viewBox="0 0 29 29"><g fill-rule="evenodd"><path d="M14.384 28.269c7.668 0 13.885-6.217 13.885-13.885S22.052.5 14.384.5.5 6.716.5 14.384 6.716 28.27 14.384 28.27zm0-3c-6.01 0-10.884-4.873-10.884-10.885C3.5 8.374 8.373 3.5 14.384 3.5c6.012 0 10.885 4.873 10.885 10.884 0 6.012-4.873 10.885-10.885 10.885z"/><path d="M13 13V9h3v4h4v3h-4v4h-3v-4H9v-3h4z"/></g></symbol><symbol id="preludium" viewBox="0 0 100 126"><path d="M73.337 9.696l16.564 89.057c.006.171.037.343.019.513a1.75 1.75 0 0 1-.785 1.274c-.144.093-.312.142-.467.214l-68.334 19.823c-.526.057-.688.144-1.195-.08a1.763 1.763 0 0 1-.863-.829 1.75 1.75 0 0 1 .116-1.746c.309-.46.492-.473.967-.707l66.81-19.38L68.713 3.966 3.756 22.81l14.896 80.095.005.608c-.176.498-.167.682-.588 1.042a1.75 1.75 0 0 1-2.25.021c-.428-.352-.423-.536-.608-1.031L.025 21.891c-.007-.171-.038-.343-.019-.513a1.752 1.752 0 0 1 .785-1.274c.143-.093.311-.142.467-.214L69.592.067 70.169 0l.568.126c.165.102.35.178.495.305.398.349.393.521.568.997l.894 4.81 5.973-1.733.577-.067.568.126c.432.266.601.296.863.756.096.168.133.364.2.546l18.1 97.325c.007.171.038.343.02.513a1.75 1.75 0 0 1-.785 1.274c-.144.093-.312.142-.467.214l-56.508 16.392h46.309l-.433-2.329H71.628c-.108-.004-.136-.002-.243-.017a1.756 1.756 0 0 1-1.421-1.192 1.753 1.753 0 0 1 1.42-2.274c.108-.015.136-.013.244-.017h22.217l.122.004c.04.004.081.007.122.013a1.752 1.752 0 0 1 1.207 2.712 1.757 1.757 0 0 1-1.207.754c-.108.015-.135.013-.244.017h-3.174l.699 3.759c.001.204.039.41.005.611a1.75 1.75 0 0 1-1.124 1.352c-.191.07-.401.071-.602.107H28.975v-.015c-.24.026-.424.015-.76-.134a1.75 1.75 0 0 1-.747-2.575c.308-.46.491-.473.966-.707l66.81-19.38L77.788 8.404l-4.45 1.291zm24.627 99.329l.091.009a1.755 1.755 0 0 1 1.356.975 1.757 1.757 0 0 1-.129 1.745 1.755 1.755 0 0 1-1.12.735l-.09.015-12.204 1.669-.09.01a1.748 1.748 0 0 1-1.892-1.873 1.756 1.756 0 0 1 .673-1.254 1.754 1.754 0 0 1 .745-.336l.09-.015 12.204-1.669.091-.01c.081-.007.102-.005.183-.006l.092.005zM42.678 34.72a18.932 18.932 0 0 1 1.646.078c1.659.158 3.309.563 4.799 1.32.278.142.55.296.815.461a9.509 9.509 0 0 1 2.884 2.781c.39.58.716 1.203.98 1.85.168.411.31.833.43 1.26.126.455.227.916.31 1.38.224 1.272.29 2.572.172 3.858a13.416 13.416 0 0 1-1.062 4.135 13.69 13.69 0 0 1-1.573 2.706c-.218.294-.448.58-.688.858-1.487 1.719-3.357 3.086-5.404 4.065a18.562 18.562 0 0 1-3.517 1.262c-.222.056-.445.106-.668.158a332.958 332.958 0 0 0-2.7.655l-.187.047 3.277 17.617.023.17c.002.057.007.115.006.172a1.755 1.755 0 0 1-.796 1.445 1.757 1.757 0 0 1-1.483.201 1.75 1.75 0 0 1-1.096-1.019c-.057-.142-.06-.18-.095-.329l-3.577-19.233-4.058-21.816-.023-.171c-.002-.057-.007-.115-.007-.172a1.754 1.754 0 0 1 1.112-1.606c.053-.021.109-.037.163-.055a218.687 218.687 0 0 1 3.483-.95 135.978 135.978 0 0 1 2.807-.71 16.87 16.87 0 0 1 1.75-.29 19.84 19.84 0 0 1 2.277-.128zm-.121 3.5a16.31 16.31 0 0 0-1.663.094 14.35 14.35 0 0 0-1.47.238c-.078.017-.156.037-.233.056a118.3 118.3 0 0 0-1.422.356c-.963.247-1.924.504-2.883.765l-.036.01 3.424 18.407 1.162-.285c.52-.127 1.04-.252 1.56-.375l.476-.11.224-.056a14.961 14.961 0 0 0 3.05-1.138c1.653-.832 3.158-1.987 4.31-3.442.258-.326.498-.666.717-1.02.253-.41.479-.837.672-1.279a9.846 9.846 0 0 0 .818-3.568 11.2 11.2 0 0 0-.168-2.413 9.766 9.766 0 0 0-.456-1.73c-.15-.4-.333-.787-.554-1.153a6.09 6.09 0 0 0-.778-1.03 6.175 6.175 0 0 0-1.178-.971 7.89 7.89 0 0 0-2.047-.905c-1.106-.322-2.263-.446-3.413-.452h-.112z" fill-rule="evenodd"/></symbol><symbol id="reset" viewBox="0 0 21 18"><path d="M12 17.9c4.704 0 8.5-3.904 8.5-8.7 0-4.796-3.796-8.7-8.5-8.7-4.704 0-8.5 3.904-8.5 8.7h3c0-3.157 2.472-5.7 5.5-5.7s5.5 2.543 5.5 5.7-2.472 5.7-5.5 5.7v3z"/><path d="M4.688 8.908v-3h-3v6h6v-3h-3z"/></symbol><symbol id="search" viewBox="0 0 21 22"><path d="M14.143 9.357c0 3.033-2.468 5.5-5.5 5.5a5.507 5.507 0 0 1-5.5-5.5c0-3.032 2.467-5.5 5.5-5.5 3.032 0 5.5 2.468 5.5 5.5zm6.286 10.214a1.58 1.58 0 0 0-.455-1.104l-4.21-4.211a8.623 8.623 0 0 0 1.522-4.899A8.64 8.64 0 0 0 8.643.714 8.64 8.64 0 0 0 0 9.357 8.64 8.64 0 0 0 8.643 18a8.623 8.623 0 0 0 4.898-1.522l4.211 4.198a1.54 1.54 0 0 0 1.105.467c.86 0 1.572-.712 1.572-1.572z" fill-rule="evenodd"/></symbol><symbol id="star" viewBox="0 0 10 9"><path d="M5 7.5L2.061 9.045l.561-3.272L.245 3.455l3.286-.478L5 0l1.47 2.977 3.285.478-2.377 2.318.56 3.272L5 7.5z" fill-rule="evenodd"/></symbol><symbol id="twitter" viewBox="0 0 32.000125885009766 32"><path d="M32 6.076a13.14 13.14 0 0 1-3.771 1.034 6.592 6.592 0 0 0 2.887-3.632 13.151 13.151 0 0 1-4.169 1.593 6.557 6.557 0 0 0-4.792-2.073 6.565 6.565 0 0 0-6.565 6.565c0 .515.058 1.016.17 1.496a18.64 18.64 0 0 1-13.532-6.86A6.536 6.536 0 0 0 1.339 7.5a6.563 6.563 0 0 0 2.921 5.465 6.54 6.54 0 0 1-2.974-.821l-.001.083a6.57 6.57 0 0 0 5.266 6.438 6.578 6.578 0 0 1-2.965.112 6.572 6.572 0 0 0 6.133 4.559 13.172 13.172 0 0 1-8.154 2.81c-.53 0-1.052-.031-1.566-.092a18.579 18.579 0 0 0 10.064 2.95c12.076 0 18.679-10.004 18.679-18.68 0-.285-.006-.568-.019-.849A13.354 13.354 0 0 0 32 6.076z"/></symbol><symbol id="whatsapp" viewBox="0 0 23 23"><title>&#xF232;</title><path d="M14.291 12.846c-.377 0-1.102 1.407-1.538 1.407a.638.638 0 0 1-.319-.101c-.812-.406-1.523-.827-2.19-1.466-.552-.522-1.161-1.305-1.48-1.987a.432.432 0 0 1-.073-.218c0-.334 1.001-.958 1.001-1.509 0-.145-.74-2.118-.842-2.365-.145-.377-.217-.493-.609-.493-.189 0-.363-.044-.537-.044-.304 0-.537.116-.754.32-.697.652-1.045 1.334-1.074 2.292v.116c-.014 1.001.479 2.002 1.03 2.815 1.248 1.842 2.54 3.453 4.614 4.396.624.29 2.06.9 2.757.9.827 0 2.176-.523 2.51-1.335.13-.334.247-.74.247-1.103 0-.058 0-.145-.03-.218-.101-.174-2.466-1.407-2.713-1.407zm-2.945 7.69a9.171 9.171 0 0 1-5.006-1.51l-3.51 1.118 1.145-3.38a9.07 9.07 0 0 1-1.74-5.34c0-5.02 4.09-9.112 9.111-9.112 5.02 0 9.112 4.092 9.112 9.112 0 5.02-4.092 9.112-9.112 9.112zm0-20.052C5.31.484.406 5.388.406 11.424c0 1.988.537 3.947 1.567 5.644L0 22.944 6.05 21a10.945 10.945 0 0 0 16.236-9.576c0-6.036-4.904-10.94-10.94-10.94z" fill="#333" fill-rule="evenodd"/></symbol><symbol id="youtube" viewBox="0 0 1022 719"><g fill-rule="evenodd"><mask id="youtube-b"><use xlink:href="#youtube-a"/></mask><path d="M647.267 366.906L405.225 205.281l276 144-33.958 17.625" fill="#DEDED9" mask="url(#youtube-b)"/><path d="M405.272 492.281l-.047-287 276 144-275.953 143zm605.978-336.719s-9.98-70.389-40.608-101.386C931.8 13.493 888.262 13.291 868.296 10.91 725.359.577 510.946.577 510.946.577h-.444s-214.408 0-357.35 10.333c-19.967 2.381-63.489 2.583-102.345 43.266-30.626 30.997-40.592 101.386-40.592 101.386S0 238.222 0 320.881v77.493c0 82.658 10.215 165.317 10.215 165.317s9.966 70.39 40.592 101.387c38.856 40.684 89.896 39.397 112.629 43.661C245.153 716.575 510.725 719 510.725 719s214.634-.323 357.571-10.655c19.966-2.382 63.504-2.583 102.346-43.267 30.628-30.997 40.608-101.387 40.608-101.387s10.2-82.659 10.2-165.317v-77.493c0-82.659-10.2-165.319-10.2-165.319z" fill="#FFF" mask="url(#youtube-b)"/></g></symbol></svg>