<svg width="38px" height="38px" viewBox="0 0 38 38" version="1.1" xmlns="http://www.w3.org/2000/svg" xmlns:xlink="http://www.w3.org/1999/xlink">
    <path d="M18.4273859,36.8609272 C28.6045896,36.8609272 36.8547718,28.609288 36.8547718,18.4304636 C36.8547718,8.25163914 28.6045896,0 18.4273859,0 C8.25018215,0 0,8.25163914 0,18.4304636 C0,28.609288 8.25018215,36.8609272 18.4273859,36.8609272 L18.4273859,36.8609272 Z M18.4273859,34.8609272 C9.35483072,34.8609272 2,27.5047976 2,18.4304636 C2,9.35612958 9.35483072,2 18.4273859,2 C27.4999411,2 34.8547718,9.35612958 34.8547718,18.4304636 C34.8547718,27.5047976 27.4999411,34.8609272 18.4273859,34.8609272 L18.4273859,34.8609272 Z"></path>
    <path d="M14.5635142,23.1762369 L10.7032198,19.3152607 L9.6426533,18.2545069 L11.7641609,16.1333739 L12.8247275,17.1941277 L16.6846473,21.0547292 L24.7622874,12.9756625 L25.822854,11.9149087 L27.9443616,14.0360418 L26.8837951,15.0967956 L17.7454011,24.2368034 L16.6848346,25.2975572 L15.9815698,24.5944165 L15.6239871,24.236897 L14.563327,23.1764241 L14.5635142,23.1762369 Z"></path>
</svg>
