<svg width="33px" height="35px" viewBox="0 0 33 35" version="1.1" xmlns="http://www.w3.org/2000/svg" xmlns:xlink="http://www.w3.org/1999/xlink">
    <g stroke="none" stroke-width="1" fill-rule="evenodd">
        <path d="M0,30.625 L32.8998918,30.625 L32.8998918,35 L0,35 L0,30.625 L0,30.625 Z"></path>
        <path d="M19.739972,0 L19.739972,15.8147193 C21.7588825,13.7962632 23.7279235,11.8279123 25.6708601,9.88547368 C27.2574459,11.466 28.7982257,13.0010877 30.3227519,14.5197193 C25.6970877,19.1323509 21.0545541,23.7616842 16.4235951,28.3794737 C11.7987929,23.7679474 7.156875,19.1394737 2.53207276,14.528193 C4.05746082,13.0082105 5.59836381,11.473 7.15712127,9.91985965 C9.11360261,11.8780175 11.0923713,13.8581579 13.0710168,15.8384211 C13.1006922,15.8251579 13.1303675,15.8120175 13.1599198,15.7988772 L13.1599198,0 L19.739972,0 L19.739972,0 Z"></path>
    </g>
</svg>
