<?xml version="1.0" encoding="UTF-8" standalone="no"?>
<svg width="32px" height="32px" viewBox="0 0 32 32" version="1.1" xmlns="http://www.w3.org/2000/svg" xmlns:xlink="http://www.w3.org/1999/xlink" xmlns:sketch="http://www.bohemiancoding.com/sketch/ns">
    <defs></defs>
    <path d="M26.6875,0 L5.3125,0 C2.3905,0 0,2.3905 0,5.3125 L0,26.6875 C0,29.6095 2.3905,32 5.3125,32 L26.6875,32 C29.6095,32 32,29.6095 32,26.6875 L32,5.3125 C32,2.3905 29.6095,0 26.6875,0 Z M10.244,14 L21.7565,14 C21.975,14.627 22.094,15.2995 22.094,16 C22.094,19.36 19.3605,22.094 16,22.094 C12.6395,22.094 9.906,19.3605 9.906,16 C9.906,15.2995 10.025,14.627 10.2435,14 L10.244,14 Z M28,14.0015 L28,26 C28,27.1 27.1,28 26,28 L6,28 C4.9,28 4,27.1 4,26 L4,14 L7.1285,14 C6.9835,14.644 6.9065,15.313 6.9065,16 C6.9065,21.0145 10.986,25.094 16.0005,25.094 C21.015,25.094 25.0945,21.0145 25.0945,16 C25.0945,15.313 25.0175,14.644 24.8725,14 L28.001,14.0015 L28,14.0015 Z M28,7 C28,7.55 27.55,8 27,8 L25,8 C24.45,8 24,7.55 24,7 L24,5 C24,4.45 24.45,4 25,4 L27,4 C27.55,4 28,4.45 28,5 L28,7 Z" id="Shape" fill="#000000" sketch:type="MSShapeGroup"></path>
</svg>
