<svg fill="#7FECE3" width="42px" height="42px" viewBox="0 0 42 42" version="1.1" xmlns="http://www.w3.org/2000/svg" xmlns:xlink="http://www.w3.org/1999/xlink">
    <g>
        <path d="M14.6529026,31.6685288 L24.9542541,21.3671772 C25.0413078,21.2801235 25.0993436,21.1930699 25.1428704,21.0915072 L25.1428704,30.9285725 C25.1428704,31.4363856 25.5636299,31.8571451 26.071443,31.8571451 L27.928588,31.8571451 C28.4364011,31.8571451 28.8571606,31.4363856 28.8571606,30.9285725 L28.8571606,10.4999768 C28.8571606,9.99216365 28.4364011,9.57140422 27.928588,9.57140422 L26.071443,9.57140422 C25.5636299,9.57140422 25.1428704,9.99216365 25.1428704,10.4999768 L25.1428704,20.3370421 C25.0993436,20.2354794 25.0413078,20.1484258 24.9542541,20.0613721 L14.6529026,9.76002051 C14.2901789,9.39729687 14,9.52787738 14,10.0356905 L14,31.3928588 C14,31.9006719 14.2901789,32.0312524 14.6529026,31.6685288 L14.6529026,31.6685288 Z"></path>
        <path d="M21,42 C32.5979797,42 42,32.5979797 42,21 C42,9.40202025 32.5979797,0 21,0 C9.40202025,0 0,9.40202025 0,21 C0,32.5979797 9.40202025,42 21,42 L21,42 Z M21,38 C11.6111593,38 4,30.3888407 4,21 C4,11.6111593 11.6111593,4 21,4 C30.3888407,4 38,11.6111593 38,21 C38,30.3888407 30.3888407,38 21,38 L21,38 Z"></path>
    </g>
</svg>
