<svg width="65px" height="65px" viewBox="0 0 65 65" version="1.1" xmlns="http://www.w3.org/2000/svg" xmlns:xlink="http://www.w3.org/1999/xlink">
    <g>
        <path d="M32.5,65.0000001 C50.4492544,65.0000001 65,50.4492544 65,32.5 C65,14.5507456 50.4492544,0 32.5,0 C14.5507456,0 0,14.5507456 0,32.5 C0,50.4492544 14.5507456,65.0000001 32.5,65.0000001 L32.5,65.0000001 L32.5,65.0000001 L32.5,65.0000001 Z M32.5,60.9649587 C16.7792375,60.9649587 4.03504143,48.2207626 4.03504143,32.5 C4.03504143,16.7792375 16.7792375,4.03504143 32.5,4.03504143 C48.2207626,4.03504143 60.9649586,16.7792375 60.9649586,32.5 C60.9649586,48.2207626 48.2207626,60.9649587 32.5,60.9649587 L32.5,60.9649587 L32.5,60.9649587 L32.5,60.9649587 Z"></path>
        <path d="M36,23 L36,41 L41,41 L41,23 L36,23 L36,23 Z"></path>
        <path d="M24,23 L24,41 L29,41 L29,23 L24,23 L24,23 Z"></path>
    </g>
</svg>
