<svg fill="#00D9C7" width="25px" height="25px" viewBox="0 0 25 25" version="1.1" xmlns="http://www.w3.org/2000/svg" xmlns:xlink="http://www.w3.org/1999/xlink">
    <g>
        <path d="M12.5,24.9999999 C19.4035594,24.9999999 25,19.4035594 25,12.5 C25,5.59644062 19.4035594,0 12.5,0 C5.59644062,0 0,5.59644062 0,12.5 C0,19.4035594 5.59644062,24.9999999 12.5,24.9999999 L12.5,24.9999999 L12.5,24.9999999 L12.5,24.9999999 Z M12.5,22.0915762 C7.2027187,22.0915762 2.90842374,17.7972813 2.90842374,12.5 C2.90842374,7.2027187 7.2027187,2.90842374 12.5,2.90842374 C17.7972812,2.90842374 22.0915763,7.2027187 22.0915763,12.5 C22.0915763,17.7972813 17.7972812,22.0915762 12.5,22.0915762 L12.5,22.0915762 L12.5,22.0915762 L12.5,22.0915762 Z"></path>
        <path d="M8,9 L8,17 L11,17 L11,9 L8,9 L8,9 Z"></path>
        <path d="M14,9 L14,17 L17,17 L17,9 L14,9 L14,9 Z"></path>
    </g>
</svg>
