<svg fill="#00D9C7" width="27px" height="27px" viewBox="0 0 27 27" version="1.1" xmlns="http://www.w3.org/2000/svg" xmlns:xlink="http://www.w3.org/1999/xlink">
    <path d="M13.43969,26.4172292 C20.5606187,26.4172292 26.333272,20.644576 26.333272,13.5236473 C26.333272,6.40271856 20.5606187,0.630065271 13.43969,0.630065271 C6.31876128,0.630065271 0.546107991,6.40271856 0.546107991,13.5236473 C0.546107991,20.644576 6.31876128,26.4172292 13.43969,26.4172292 L13.43969,26.4172292 Z M13.43969,23.4172292 C7.97561553,23.4172292 3.54610799,18.9877217 3.54610799,13.5236473 C3.54610799,8.05957281 7.97561553,3.63006527 13.43969,3.63006527 C18.9037644,3.63006527 23.333272,8.05957281 23.333272,13.5236473 C23.333272,18.9877217 18.9037644,23.4172292 13.43969,23.4172292 L13.43969,23.4172292 Z"></path>
    <path d="M20.009525,13.4492529 L10.4170615,18.3779055 C10.3191749,18.4322945 10.2359844,8.67189662 10.2359844,8.67189662 C10.23102,8.59823643 10.3130982,8.58012523 10.4170615,8.63035705 C10.4170615,8.63035705 13.858155,10.2929862 15.5787018,11.1243007 C17.0513673,11.8358468 19.9966984,13.258939 19.9966984,13.258939 C20.101669,13.3096575 20.1064723,13.3953859 20.009525,13.4492529 Z"></path>
</svg>
