<svg width="65px" height="65px" viewBox="0 0 65 65" version="1.1" xmlns="http://www.w3.org/2000/svg" xmlns:xlink="http://www.w3.org/1999/xlink">
    <g>
        <path d="M32.5,65 C50.4492544,65 65,50.4492544 65,32.4999999 C65,14.5507456 50.4492544,0 32.5,0 C14.5507456,0 0,14.5507456 0,32.4999999 C0,50.4492544 14.5507456,65 32.5,65 L32.5,65 L32.5,65 Z M32.5,60.9649586 C16.7792375,60.9649586 4.03504143,48.2207625 4.03504143,32.4999999 C4.03504143,16.7792375 16.7792375,4.03504142 32.5,4.03504142 C48.2207626,4.03504142 60.9649586,16.7792375 60.9649586,32.4999999 C60.9649586,48.2207625 48.2207626,60.9649586 32.5,60.9649586 L32.5,60.9649586 L32.5,60.9649586 Z"></path>
        <path d="M49.7643923,32.3654099 L24.323511,45.4370538 C24.0638985,45.5813028 23.8432631,19.6950302 23.8432631,19.6950302 C23.8300964,19.4996705 24.0477823,19.4516365 24.323511,19.58486 C24.323511,19.58486 33.4498894,23.9944416 38.0130786,26.1992324 L49.730374,31.8606644 C50.0087742,31.9951787 50.0215135,32.2225452 49.7643923,32.3654099 L49.7643923,32.3654099 Z"></path>
    </g>
</svg>
