<svg width="29px" height="29px" viewBox="0 0 29 29" version="1.1" xmlns="http://www.w3.org/2000/svg" xmlns:xlink="http://www.w3.org/1999/xlink">
    <g stroke="none" stroke-width="1" fill-rule="evenodd">
        <path d="M14.3843282,28.2686565 C22.052431,28.2686565 28.2686565,22.052431 28.2686565,14.3843282 C28.2686565,6.71622549 22.052431,0.5 14.3843282,0.5 C6.71622549,0.5 0.5,6.71622549 0.5,14.3843282 C0.5,22.052431 6.71622549,28.2686565 14.3843282,28.2686565 L14.3843282,28.2686565 Z M14.3843282,25.2686565 C8.37307974,25.2686565 3.5,20.3955767 3.5,14.3843282 C3.5,8.37307974 8.37307974,3.5 14.3843282,3.5 C20.3955767,3.5 25.2686565,8.37307974 25.2686565,14.3843282 C25.2686565,20.3955767 20.3955767,25.2686565 14.3843282,25.2686565 L14.3843282,25.2686565 Z"></path>
        <path d="M13,13 L13,10.5 L13,9 L16,9 L16,10.5 L16,13 L18.5,13 L20,13 L20,16 L18.5,16 L16,16 L16,18.5 L16,20 L13,20 L13,18.5 L13,16 L10.5,16 L9,16 L9,13 L10.5,13 L13,13 Z"></path>
    </g>
</svg>
