<svg width="100px" height="126px" viewBox="0 0 100 126" version="1.1" xmlns="http://www.w3.org/2000/svg" xmlns:xlink="http://www.w3.org/1999/xlink">
    <g stroke="none" stroke-width="1" fill-rule="evenodd">
        <path d="M73.3374772,9.696 L89.9007772,98.753 C89.9070772,98.9241 89.9384772,99.096 89.9195772,99.2661 C89.9006772,99.4362 89.8560772,99.6053 89.7886772,99.7626 C89.6522772,100.0807 89.4246772,100.3512 89.1346772,100.5399 C88.9911772,100.6332 88.8233772,100.6824 88.6677772,100.7537 L20.3337772,120.5767 C19.8079772,120.6336 19.6464772,120.7208 19.1393772,120.4969 C18.9540772,120.4151 18.7806772,120.2989 18.6344772,120.1586 C18.4883772,120.0183 18.3650772,119.8498 18.2757772,119.668 C18.0942772,119.2988 18.0486772,118.8774 18.1469772,118.4779 C18.1953772,118.2812 18.2796772,118.0902 18.3924772,117.9219 C18.7009772,117.4614 18.8840772,117.4486 19.3586772,117.2153 L86.1698772,97.8341 L68.7118772,3.967 L3.75567719,22.81 L18.6517772,102.905 L18.6574772,103.5128 C18.4811772,104.0115 18.4898772,104.1948 18.0685772,104.555 C17.9146772,104.6867 17.7348772,104.7927 17.5451772,104.8638 C17.1598772,105.0081 16.7360772,105.0121 16.3480772,104.875 C16.1570772,104.8075 15.9753772,104.7048 15.8189772,104.576 C15.3909772,104.2237 15.3962772,104.0403 15.2107772,103.545 L0.0247771925,21.891 C0.0184771925,21.72 -0.0129228075,21.548 0.00597719251,21.378 C0.0441771925,21.034 0.183477193,20.709 0.406277193,20.444 C0.516477193,20.313 0.647477193,20.197 0.790877193,20.104 C0.934377193,20.011 1.10207719,19.962 1.25767719,19.89 L69.5916772,0.067 L70.1693772,0 C70.3585772,0.042 70.5477772,0.084 70.7370772,0.126 C70.9020772,0.228 71.0862772,0.304 71.2321772,0.431 C71.6302772,0.78 71.6254772,0.952 71.7997772,1.428 L72.6943772,6.238 L78.6665772,4.505 L79.2442772,4.438 C79.4335772,4.48 79.6227772,4.522 79.8119772,4.564 C80.2436772,4.83 80.4129772,4.86 80.6748772,5.32 C80.7708772,5.488 80.8081772,5.684 80.8747772,5.866 L98.9757772,103.191 C98.9820772,103.3621 99.0134772,103.534 98.9945772,103.7041 C98.9756772,103.8742 98.9310772,104.0433 98.8636772,104.2006 C98.7272772,104.5187 98.4996772,104.7891 98.2096772,104.9779 C98.0661772,105.0712 97.8983772,105.1204 97.7427772,105.1917 L41.2351772,121.584 L87.5437772,121.584 L87.1106772,119.255 L71.6282772,119.255 C71.5198772,119.2512 71.4923772,119.2531 71.3846772,119.238 C71.1020772,119.1983 70.8305772,119.0886 70.5996772,118.9208 C70.4348772,118.8011 70.2913772,118.6525 70.1774772,118.4836 C70.0863772,118.3485 70.0142772,118.2007 69.9638772,118.0458 C69.9009772,117.8521 69.8721772,117.6475 69.8793772,117.4439 C69.8864772,117.2404 69.9293772,117.0383 70.0056772,116.8494 C70.0666772,116.6984 70.1489772,116.556 70.2492772,116.4276 C70.3997772,116.2349 70.5907772,116.0746 70.8066772,115.9598 C70.9865772,115.8642 71.1829772,115.8004 71.3846772,115.772 C71.4923772,115.7569 71.5198772,115.7588 71.6282772,115.755 L93.8452772,115.755 C93.8859772,115.7564 93.9266772,115.7578 93.9673772,115.7593 C94.0077772,115.7635 94.0484772,115.7664 94.0887772,115.772 C94.1694772,115.7834 94.2492772,115.8003 94.3275772,115.8228 C94.6019772,115.9015 94.8555772,116.0479 95.0608772,116.2462 C95.2074772,116.3877 95.3288772,116.5548 95.4181772,116.7379 C95.5074772,116.9209 95.5643772,117.1195 95.5856772,117.3221 C95.6026772,117.4841 95.5969772,117.6484 95.5686772,117.8089 C95.5261772,118.0497 95.4327772,118.2809 95.2960772,118.4836 C95.1364772,118.7202 94.9188772,118.9162 94.6668772,119.0502 C94.4869772,119.1458 94.2905772,119.2096 94.0887772,119.238 C93.9811772,119.2531 93.9536772,119.2512 93.8452772,119.255 L90.6706772,119.255 L91.3697772,123.014 C91.3714772,123.2177 91.4087772,123.4242 91.3748772,123.625 C91.3410772,123.8258 91.2705772,124.0236 91.1696772,124.2005 C90.9648772,124.5599 90.6393772,124.8351 90.2508772,124.9773 C90.0596772,125.0474 89.8497772,125.0484 89.6492772,125.084 L28.9752772,125.084 L28.9752772,125.0694 C28.7354772,125.0951 28.5511772,125.0836 28.2143772,124.9349 C28.0290772,124.8531 27.8556772,124.7369 27.7094772,124.5966 C27.4126772,124.3117 27.2256772,123.9313 27.1814772,123.5223 C27.1596772,123.3209 27.1735772,123.1126 27.2219772,122.9159 C27.2703772,122.7192 27.3546772,122.5282 27.4674772,122.3599 C27.7759772,121.8994 27.9590772,121.8866 28.4336772,121.6533 L95.2448772,102.2721 L77.7869772,8.405 L73.3374772,9.696 Z M97.9637772,109.0247 C97.9941772,109.0278 98.0246772,109.03 98.0549772,109.0338 C98.1155772,109.0415 98.1757772,109.0524 98.2352772,109.0663 C98.4732772,109.1222 98.6988772,109.2284 98.8935772,109.3763 C99.1127772,109.5427 99.2912772,109.7609 99.4109772,110.0087 C99.5306772,110.2565 99.5906772,110.5319 99.5848772,110.807 C99.5816772,110.9597 99.5582772,111.1119 99.5156772,111.2586 C99.4644772,111.4346 99.3854772,111.6024 99.2824772,111.754 C99.1621772,111.9308 99.0093772,112.0852 98.8336772,112.2072 C98.6831772,112.3118 98.5161772,112.3925 98.3406772,112.4454 C98.2821772,112.4631 98.2228772,112.4776 98.1627772,112.4891 C98.1327772,112.4948 98.1025772,112.4989 98.0723772,112.5039 L85.8683772,114.1729 C85.8379772,114.1762 85.8077772,114.1804 85.7772772,114.1829 C85.7163772,114.188 85.6552772,114.1899 85.5941772,114.1886 C85.4109772,114.1847 85.2284772,114.1519 85.0553772,114.0915 C84.8533772,114.0212 84.6647772,113.9135 84.5013772,113.7754 C84.3380772,113.6373 84.2005772,113.4692 84.0975772,113.2817 C84.0092772,113.1211 83.9464772,112.9466 83.9121772,112.7666 C83.8835772,112.6165 83.8747772,112.4628 83.8859772,112.3105 C83.9039772,112.0666 83.9735772,111.8272 84.0891772,111.6117 C84.2047772,111.3962 84.3656772,111.2058 84.5589772,111.056 C84.7279772,110.9249 84.9210772,110.8254 85.1257772,110.7636 C85.1842772,110.7459 85.2436772,110.7314 85.3036772,110.7199 C85.3336772,110.7142 85.3639772,110.7101 85.3941772,110.7051 L97.5981772,109.0361 C97.6284772,109.0328 97.6587772,109.0287 97.6891772,109.0261 C97.7703772,109.0193 97.7908772,109.0208 97.8722772,109.0204 C97.9027772,109.0218 97.9332772,109.0233 97.9637772,109.0247 L97.9637772,109.0247 Z M42.6782772,34.7196 C42.9839772,34.7209 43.2895772,34.7286 43.5948772,34.7447 C43.8383772,34.7576 44.0816772,34.7754 44.3244772,34.7985 C45.9829772,34.9564 47.6326772,35.3614 49.1228772,36.1187 C49.4012772,36.2601 49.6735772,36.4136 49.9381772,36.5793 C50.4605772,36.9064 50.9530772,37.2813 51.4046772,37.7008 C51.9390772,38.1972 52.4148772,38.7554 52.8218772,39.3606 C53.2119772,39.9407 53.5382772,40.5627 53.8020772,41.21 C53.9696772,41.6214 54.1123772,42.0429 54.2316772,42.4708 C54.3582772,42.9249 54.4592772,43.3863 54.5413772,43.8504 C54.7662772,45.1219 54.8327772,46.422 54.7143772,47.7085 C54.6466772,48.4452 54.5185772,49.1764 54.3303772,49.892 C54.1551772,50.5586 53.9277772,51.2114 53.6516772,51.843 C53.4168772,52.3801 53.1468772,52.9017 52.8451772,53.4043 C52.6086772,53.7981 52.3525772,54.1802 52.0788772,54.5491 C51.8605772,54.8435 51.6309772,55.1296 51.3912772,55.4068 C49.9044772,57.1255 48.0338772,58.4934 45.9872772,59.4716 C45.1161772,59.8879 44.2120772,60.2346 43.2868772,60.5104 C43.0163772,60.5911 42.7441772,60.6656 42.4702772,60.7341 C42.2480772,60.7897 42.0245772,60.8398 41.8016772,60.8923 C41.5031772,60.9631 41.2047772,61.0343 40.9065772,61.1059 C40.3045772,61.2511 39.7031772,61.3984 39.1020772,61.547 L38.9151772,61.5935 L42.1917772,79.211 L42.2148772,79.3812 C42.2169772,79.4384 42.2218772,79.4956 42.2210772,79.5528 C42.2182772,79.782 42.1698772,80.0101 42.0795772,80.2208 C42.0118772,80.3787 41.9207772,80.5265 41.8100772,80.658 C41.6993772,80.7894 41.5693772,80.9044 41.4252772,80.9981 C41.1848772,81.1544 40.9067772,81.25 40.6210772,81.2746 C40.3926772,81.2942 40.1608772,81.2685 39.9423772,81.1992 C39.7785772,81.1473 39.6226772,81.0711 39.4809772,80.9738 C39.1969772,80.7789 38.9740772,80.5003 38.8462772,80.1805 C38.7894772,80.0385 38.7859772,79.9993 38.7507772,79.851 L35.1737772,60.618 L31.1157772,38.802 L31.0925772,38.631 C31.0905772,38.5735 31.0856772,38.516 31.0863772,38.4585 C31.0879772,38.3433 31.1008772,38.2286 31.1249772,38.1159 C31.1731772,37.8907 31.2661772,37.6755 31.3972772,37.4861 C31.5283772,37.2967 31.6969772,37.1338 31.8907772,37.0094 C31.9877772,36.9471 32.0905772,36.8946 32.1978772,36.8526 C32.2513772,36.8316 32.3068772,36.816 32.3614772,36.7976 C32.5515772,36.744 32.7418772,36.6908 32.9321772,36.6377 C33.9013772,36.3686 34.8718772,36.1043 35.8444772,35.8479 C36.7265772,35.6153 37.6103772,35.3891 38.4969772,35.1743 C38.5481772,35.1621 38.5994772,35.1501 38.6507772,35.1383 C39.2284772,35.0094 39.8131772,34.9149 40.4011772,34.8474 C41.0890772,34.7683 41.7805772,34.7269 42.4728772,34.7201 C42.5413772,34.7197 42.6097772,34.7195 42.6782772,34.7196 L42.6782772,34.7196 Z M42.5566772,38.2196 C42.0013772,38.2231 41.4464772,38.2539 40.8943772,38.314 C40.5311772,38.3536 40.1691772,38.4052 39.8100772,38.4724 C39.6810772,38.4966 39.5523772,38.5228 39.4243772,38.5518 C39.3462772,38.5695 39.2683772,38.5886 39.1905772,38.6075 C39.0630772,38.6385 38.9357772,38.6698 38.8084772,38.7012 C38.4614772,38.7871 38.1149772,38.8747 37.7687772,38.9636 C36.8057772,39.2108 35.8453772,39.4677 34.8862772,39.7294 L34.8501772,39.7393 L38.2740772,58.1464 C38.6613772,58.0506 39.0488772,57.9554 39.4364772,57.8607 C39.9561772,57.7344 40.4760772,57.6092 40.9964772,57.4862 C41.1549772,57.4488 41.3136772,57.4126 41.4720772,57.3751 C41.5467772,57.357 41.6213772,57.3386 41.6958772,57.3198 C42.1401772,57.2052 42.5796772,57.0731 43.0124772,56.9202 C43.3457772,56.8025 43.6749772,56.6731 43.9990772,56.5321 C44.2514772,56.4224 44.5008772,56.3056 44.7466772,56.1819 C46.3993772,55.3496 47.9041772,54.1949 49.0560772,52.7402 C49.3142772,52.4142 49.5540772,52.0736 49.7728772,51.72 C50.0264772,51.3102 50.2516772,50.8827 50.4446772,50.4411 C50.6952772,49.8679 50.8912772,49.271 51.0286772,48.6607 C51.1607772,48.0736 51.2383772,47.4746 51.2633772,46.8735 C51.2969772,46.0659 51.2355772,45.2556 51.0948772,44.46 C50.9908772,43.8722 50.8486772,43.29 50.6389772,42.7305 C50.4889772,42.3305 50.3055772,41.9427 50.0849772,41.5766 C49.8625772,41.2076 49.6022772,40.8617 49.3070772,40.5478 C48.9571772,40.1757 48.5589772,39.8506 48.1285772,39.576 C47.4970772,39.1732 46.8005772,38.8795 46.0824772,38.6708 C44.9756772,38.3492 43.8186772,38.2248 42.6686772,38.2195 C42.6312772,38.2195 42.5939772,38.2195 42.5566772,38.2196 L42.5566772,38.2196 Z"></path>
    </g>
</svg>
