<svg fill="#ffffff" width="21px" height="18px" viewBox="0 0 21 18" version="1.1" xmlns="http://www.w3.org/2000/svg" xmlns:xlink="http://www.w3.org/1999/xlink">
    <path d="M12,17.9 C16.7040244,17.9 20.5,13.995568 20.5,9.2 C20.5,4.40443204 16.7040244,0.5 12,0.5 C7.29597559,0.5 3.5,4.40443204 3.5,9.2 L6.5,9.2 C6.5,6.04266756 8.97203791,3.5 12,3.5 C15.0279621,3.5 17.5,6.04266756 17.5,9.2 C17.5,12.3573324 15.0279621,14.9 12,14.9 L12,17.9 L12,17.9 Z"></path>
    <path d="M4.6875,8.90759277 L4.6875,5.90759277 L1.6875,5.90759277 L1.6875,9.90759277 L1.6875,11.9075928 L7.6875,11.9075928 L7.6875,8.90759277 L4.6875,8.90759277 Z"></path>
</svg>
