<svg width="21px" height="22px" viewBox="0 0 21 22" version="1.1" xmlns="http://www.w3.org/2000/svg" xmlns:xlink="http://www.w3.org/1999/xlink">
    <g stroke="none" stroke-width="1" fill-rule="evenodd">
        <g transform="translate(-436.000000, -80.000000)">
            <path d="M450.142874,89.3571326 C450.142874,92.3895022 447.675237,94.8571391 444.642867,94.8571391 C441.610498,94.8571391 439.142861,92.3895022 439.142861,89.3571326 C439.142861,86.3247629 441.610498,83.857126 444.642867,83.857126 C447.675237,83.857126 450.142874,86.3247629 450.142874,89.3571326 L450.142874,89.3571326 Z M456.428596,99.5714304 C456.428596,99.1540192 456.256721,98.7488848 455.974354,98.4665184 L451.763412,94.2555759 C452.757832,92.8191903 453.285735,91.1004382 453.285735,89.3571326 C453.285735,84.5814572 449.418543,80.7142651 444.642867,80.7142651 C439.867192,80.7142651 436,84.5814572 436,89.3571326 C436,94.1328079 439.867192,98 444.642867,98 C446.386173,98 448.104925,97.4720976 449.541311,96.4776768 L453.752253,100.676342 C454.03462,100.970986 454.439754,101.142861 454.857165,101.142861 C455.716541,101.142861 456.428596,100.430806 456.428596,99.5714304 L456.428596,99.5714304 Z"></path>
        </g>
    </g>
</svg>
