<?xml version="1.0" encoding="UTF-8" standalone="no"?>
<svg width="23px" height="23px" viewBox="0 0 23 23" version="1.1" xmlns="http://www.w3.org/2000/svg" xmlns:xlink="http://www.w3.org/1999/xlink" xmlns:sketch="http://www.bohemiancoding.com/sketch/ns">
    <!-- Generator: Sketch 3.4.2 (15857) - http://www.bohemiancoding.com/sketch -->
    <title></title>
    <desc>Created with Sketch.</desc>
    <defs></defs>
    <g id="Welcome" stroke="none" stroke-width="1" fill="none" fill-rule="evenodd" sketch:type="MSPage">
        <g id="Mobile-Portrait-Copy-8" sketch:type="MSArtboardGroup" transform="translate(-51.000000, -1248.000000)" fill="#333333">
            <g id="Rectangle-560-+-facebook---FontAwesome-Copy-11" sketch:type="MSLayerGroup" transform="translate(38.000000, 1237.000000)">
                <path d="M27.2913117,23.8459724 C26.9140791,23.8459724 26.1886318,25.2533402 25.7533634,25.2533402 C25.6372919,25.2533402 25.5357292,25.2098133 25.4341666,25.1517776 C24.6216656,24.7455271 23.9107273,24.3247676 23.2433158,23.686374 C22.6919758,23.164052 22.0826001,22.3805689 21.7634033,21.6986484 C21.7198765,21.6261037 21.6908586,21.553559 21.6908586,21.4810142 C21.6908586,21.1473085 22.6919758,20.5234238 22.6919758,19.9720839 C22.6919758,19.8269944 21.9520196,17.8537778 21.850457,17.6071257 C21.7053675,17.2298931 21.6328228,17.1138215 21.2410813,17.1138215 C21.052465,17.1138215 20.8783576,17.0702947 20.7042503,17.0702947 C20.3995624,17.0702947 20.1674193,17.1863663 19.9497851,17.3894915 C19.2533557,18.0423941 18.905141,18.7243145 18.8761231,19.681905 L18.8761231,19.7979765 C18.8616141,20.7990938 19.3549183,21.8002111 19.9062582,22.612712 C21.1540276,24.4553481 22.4453238,26.0658411 24.520103,27.0089226 C25.1439877,27.2991015 26.5803733,27.9084773 27.2768027,27.9084773 C28.1038126,27.9084773 29.4531446,27.3861552 29.7868504,26.5736542 C29.9174309,26.2399485 30.0335024,25.833698 30.0335024,25.4709744 C30.0335024,25.4129386 30.0335024,25.3258849 30.0044846,25.2533402 C29.9029219,25.0792328 27.5379638,23.8459724 27.2913117,23.8459724 L27.2913117,23.8459724 Z M24.3459957,31.5357137 C22.5759043,31.5357137 20.8203218,30.9988827 19.3404093,30.0267834 L15.8292444,31.1439722 L16.9754512,27.7633878 C15.8437534,26.2109306 15.2343777,24.3392766 15.2343777,22.4240957 C15.2343777,17.4040005 19.3259004,13.3124777 24.3459957,13.3124777 C29.3660909,13.3124777 33.4576137,17.4040005 33.4576137,22.4240957 C33.4576137,27.444191 29.3660909,31.5357137 24.3459957,31.5357137 L24.3459957,31.5357137 Z M24.3459957,11.4843505 C18.3102742,11.4843505 13.4062505,16.3883742 13.4062505,22.4240957 C13.4062505,24.4118213 13.9430815,26.370529 14.9732166,28.0680757 L13,33.9441987 L19.0502304,32 C20.6752324,32.8995546 22.5033595,33.3638409 24.3459957,33.3638409 C30.3817171,33.3638409 35.2857409,28.4598172 35.2857409,22.4240957 C35.2857409,16.3883742 30.3817171,11.4843505 24.3459957,11.4843505 L24.3459957,11.4843505 Z" id="" sketch:type="MSShapeGroup"></path>
            </g>
        </g>
    </g>
</svg>